<svg width="35" height="35" viewBox="0 0 35 35" fill="none" xmlns="http://www.w3.org/2000/svg">
<path fill-rule="evenodd" clip-rule="evenodd" d="M17.4999 1.39536C8.38157 1.39536 0.987549 8.78774 0.987549 17.9077C0.987549 25.2036 5.71884 31.3928 12.2797 33.5765C13.1047 33.7296 13.4076 33.2183 13.4076 32.7821C13.4076 32.3884 13.3923 31.0877 13.3852 29.7079C8.79146 30.7068 7.82212 27.7596 7.82212 27.7596C7.07099 25.8511 5.98872 25.3436 5.98872 25.3436C4.49028 24.3187 6.10165 24.34 6.10165 24.34C7.7595 24.4562 8.63286 26.0416 8.63286 26.0416C10.1056 28.5655 12.4957 27.8359 13.438 27.4143C13.5862 26.3471 14.0141 25.6184 14.4863 25.206C10.8187 24.789 6.96298 23.3729 6.96298 17.0458C6.96298 15.243 7.60829 13.77 8.66458 12.6134C8.49286 12.1978 7.92767 10.5183 8.82427 8.24387C8.82427 8.24387 10.2106 7.80008 13.3661 9.93645C14.6835 9.57031 16.0963 9.38629 17.4999 9.38C18.9026 9.38629 20.3163 9.56977 21.6362 9.9359C24.7878 7.79953 26.1725 8.24332 26.1725 8.24332C27.0713 10.5175 26.5061 12.1972 26.3347 12.6129C27.3934 13.7695 28.0341 15.2425 28.0341 17.0453C28.0341 23.3874 24.1712 24.7836 20.4943 25.1926C21.0868 25.705 21.6146 26.7102 21.6146 28.2505C21.6146 30.4598 21.5954 32.238 21.5954 32.7819C21.5954 33.2213 21.8929 33.7362 22.7297 33.574C29.2867 31.3882 34.0125 25.2008 34.0125 17.9077C34.0122 8.78828 26.619 1.39563 17.4999 1.39563V1.39536Z" fill="#181616"/>
<path d="M7.24159 25.1032C7.20522 25.1852 7.07616 25.2098 6.95858 25.1538C6.83827 25.1002 6.77128 24.9884 6.81011 24.9061C6.84565 24.8213 6.97499 24.798 7.09448 24.8546C7.21479 24.9085 7.28315 25.0214 7.24132 25.1035L7.24159 25.1032ZM7.91042 25.8494C7.83194 25.9224 7.678 25.8885 7.57354 25.7729C7.46526 25.658 7.44503 25.5041 7.52514 25.43C7.60663 25.3572 7.75593 25.3917 7.86421 25.5065C7.97194 25.623 7.99327 25.7756 7.91069 25.8497L7.91042 25.8494ZM8.56175 26.8002C8.46057 26.8707 8.29487 26.8048 8.19261 26.658C8.09143 26.5109 8.09143 26.3345 8.19534 26.2642C8.29733 26.1937 8.46057 26.2574 8.56448 26.4029C8.66511 26.5519 8.66511 26.7282 8.56175 26.7999V26.8002ZM9.45343 27.7192C9.36319 27.819 9.17014 27.7922 9.02905 27.6563C8.88495 27.5231 8.84475 27.3336 8.93526 27.2341C9.02714 27.134 9.221 27.1619 9.36292 27.297C9.50702 27.4299 9.5505 27.6196 9.45397 27.7189L9.45343 27.7192ZM10.6839 28.2527C10.6437 28.382 10.4583 28.4408 10.271 28.3855C10.0842 28.3289 9.96202 28.1777 10.0003 28.047C10.0386 27.9166 10.2253 27.8556 10.4137 27.9144C10.6005 27.9707 10.7227 28.1211 10.6839 28.2527ZM12.0355 28.3514C12.0401 28.4875 11.8815 28.6002 11.6855 28.6029C11.4878 28.6076 11.3278 28.4971 11.3259 28.3631C11.3259 28.2256 11.4812 28.1143 11.6787 28.1105C11.8747 28.1069 12.0358 28.2163 12.0358 28.3511L12.0355 28.3514ZM13.2928 28.1375C13.3163 28.2702 13.1798 28.4066 12.9849 28.443C12.7935 28.4785 12.6157 28.3959 12.5911 28.2644C12.5676 28.1282 12.7065 27.9918 12.8979 27.9565C13.0931 27.9229 13.2681 28.003 13.2928 28.1378V28.1375Z" fill="#181616"/>
</svg>
