<svg viewBox="0 0 72 72" fill="none" xmlns="http://www.w3.org/2000/svg">
<path d="M65.0922 29.7936C68.554 29.6273 71.6183 32.3127 71.9172 35.7775C73.212 52.5394 57.8719 71.3164 36.2545 71.9168C18.0374 72.3665 0.0201416 57.7819 0.0201416 35.7296C0.0201416 32.2542 2.89198 29.4368 6.35774 29.4368C9.8235 29.4368 12.6331 32.2542 12.6331 35.7296C12.6331 50.2351 24.2964 59.6228 35.946 59.3353C50.2869 58.9368 59.6099 46.5193 59.125 36.3806C58.9586 32.9093 61.6306 29.9602 65.0922 29.7936Z" fill="url(#paint1_linear)"/>
<path d="M49.4155 36.2175C49.4155 32.6595 52.3179 29.7751 55.8979 29.7751H65.3449C68.9252 29.7751 71.9172 32.6595 71.9172 36.2175C71.9172 39.7757 68.9252 42.6601 65.3449 42.6601H55.8979C52.3179 42.6601 49.4155 39.7757 49.4155 36.2175Z" fill="#00A672"/>
<path d="M29.5935 36.2269C29.5935 32.6636 32.4773 29.7751 36.0306 29.7751C39.5842 29.7751 42.468 32.6636 42.468 36.2269C42.468 39.7901 39.5842 42.679 36.0306 42.679C32.4773 42.679 29.5935 39.7901 29.5935 36.2269Z" fill="#00A672"/>
<path fill-rule="evenodd" clip-rule="evenodd" d="M42.2897 6.08239C42.4337 9.55479 39.7429 12.4866 36.2802 12.6308C21.3319 13.2534 12.2062 25.0021 12.6504 36.1578C12.7887 39.6302 10.1497 42.5579 6.68664 42.6966C3.22364 42.8353 0.178303 40.0326 0.04003 36.5601C-0.683832 18.3808 14.4531 0.409123 35.7594 0.0561809C39.2222 -0.0880257 42.146 2.61 42.2897 6.08239Z" fill="#00A672"/>
<defs>
<linearGradient id="paint1_linear" x1="35.9586" y1="71.9171" x2="35.9586" y2="40.8028" gradientUnits="userSpaceOnUse">
<stop stop-color="#00A672"/>
<stop offset="1" stop-color="#006B4A"/>
</linearGradient>
</defs>
</svg>
