<svg viewBox="0 0 53 53" fill="none" xmlns="http://www.w3.org/2000/svg">
<path d="M8.83333 11.0417H44.1667C44.7524 11.0417 45.3141 11.2744 45.7282 11.6885C46.1423 12.1026 46.375 12.6643 46.375 13.25C46.375 13.8357 46.1423 14.3974 45.7282 14.8115C45.3141 15.2257 44.7524 15.4584 44.1667 15.4584H8.83333C8.24765 15.4584 7.68595 15.2257 7.27181 14.8115C6.85766 14.3974 6.625 13.8357 6.625 13.25C6.625 12.6643 6.85766 12.1026 7.27181 11.6885C7.68595 11.2744 8.24765 11.0417 8.83333 11.0417V11.0417ZM8.83333 24.2917H44.1667C44.7524 24.2917 45.3141 24.5244 45.7282 24.9385C46.1423 25.3526 46.375 25.9143 46.375 26.5C46.375 27.0857 46.1423 27.6474 45.7282 28.0615C45.3141 28.4757 44.7524 28.7084 44.1667 28.7084H8.83333C8.24765 28.7084 7.68595 28.4757 7.27181 28.0615C6.85766 27.6474 6.625 27.0857 6.625 26.5C6.625 25.9143 6.85766 25.3526 7.27181 24.9385C7.68595 24.5244 8.24765 24.2917 8.83333 24.2917V24.2917ZM8.83333 37.5417H44.1667C44.7524 37.5417 45.3141 37.7744 45.7282 38.1885C46.1423 38.6026 46.375 39.1643 46.375 39.75C46.375 40.3357 46.1423 40.8974 45.7282 41.3116C45.3141 41.7257 44.7524 41.9584 44.1667 41.9584H8.83333C8.24765 41.9584 7.68595 41.7257 7.27181 41.3116C6.85766 40.8974 6.625 40.3357 6.625 39.75C6.625 39.1643 6.85766 38.6026 7.27181 38.1885C7.68595 37.7744 8.24765 37.5417 8.83333 37.5417V37.5417Z" fill="white"/>
</svg>
