<svg viewBox="0 0 30 30" fill="none" xmlns="http://www.w3.org/2000/svg">
<path d="M16.3 18.3625L17.6375 15.6875C17.772 15.4217 17.9971 15.2126 18.2721 15.098C18.5471 14.9834 18.854 14.9708 19.1375 15.0625L26.6375 17.5625C26.8881 17.6442 27.1065 17.8031 27.2614 18.0163C27.4163 18.2296 27.4998 18.4864 27.5 18.75V25C27.5 25.663 27.2366 26.2989 26.7678 26.7678C26.2989 27.2366 25.663 27.5 25 27.5H22.5C17.1957 27.5 12.1086 25.3929 8.35786 21.6421C4.60714 17.8914 2.5 12.8043 2.5 7.5V5C2.5 3.625 3.625 2.5 5 2.5H11.25C11.5121 2.49933 11.7677 2.58103 11.9808 2.73356C12.1939 2.88609 12.3536 3.10173 12.4375 3.35L14.9375 10.85C15.0326 11.1351 15.0217 11.445 14.9069 11.7228C14.7921 12.0005 14.5811 12.2277 14.3125 12.3625L11.625 13.7C12.7363 15.6416 14.3459 17.2512 16.2875 18.3625H16.3ZM10.35 5H5V7.5C5 12.1413 6.84374 16.5925 10.1256 19.8744C13.4075 23.1563 17.8587 25 22.5 25H25V19.65L19.375 17.775L17.975 20.6C17.8297 20.8861 17.58 21.1054 17.2775 21.2124C16.975 21.3194 16.6429 21.306 16.35 21.175C13.0111 19.6699 10.3357 16.9989 8.825 13.6625C8.69396 13.3696 8.68057 13.0375 8.78761 12.735C8.89464 12.4325 9.11391 12.1828 9.4 12.0375L12.225 10.6125L10.35 5Z" fill="#A0AEC0"/>
</svg>
