<svg viewBox="0 0 30 30" fill="none" xmlns="http://www.w3.org/2000/svg">
<path d="M5 5H25C25.663 5 26.2989 5.26339 26.7678 5.73223C27.2366 6.20107 27.5 6.83696 27.5 7.5V22.5C27.5 23.163 27.2366 23.7989 26.7678 24.2678C26.2989 24.7366 25.663 25 25 25H5C4.33696 25 3.70107 24.7366 3.23223 24.2678C2.76339 23.7989 2.5 23.163 2.5 22.5V7.5C2.5 6.125 3.625 5 5 5ZM25 9.225V7.5H5V9.225L15 14.225L25 9.225ZM25 12.025L15.5625 16.7375C15.388 16.8254 15.1954 16.8712 15 16.8712C14.8046 16.8712 14.612 16.8254 14.4375 16.7375L5 12.025V22.5H25V12.025Z" fill="#A0AEC0"/>
</svg>
