<svg viewBox="0 0 72 72" fill="none" xmlns="http://www.w3.org/2000/svg">
<path d="M71.9469 16.2894C71.9389 16.2559 71.9176 16.2275 71.907 16.194C71.8831 16.1346 71.8645 16.0727 71.8326 16.0185C71.8114 15.9824 71.7795 15.9514 71.7529 15.9179C71.7184 15.874 71.6892 15.825 71.6493 15.7862C71.6148 15.7527 71.5723 15.7295 71.5351 15.7011C71.4925 15.6675 71.4554 15.6314 71.4075 15.6056L57.4725 7.81248C57.1138 7.6112 56.6728 7.6112 56.3141 7.81248L42.379 15.6056C42.3312 15.6314 42.294 15.6701 42.2515 15.7011C42.2143 15.7295 42.1718 15.7527 42.1373 15.7862C42.0974 15.825 42.0682 15.874 42.0337 15.9179C42.0071 15.9514 41.9752 15.9824 41.954 16.0185C41.9221 16.0727 41.9008 16.1346 41.8796 16.194C41.8663 16.2249 41.8477 16.2559 41.8397 16.2894C41.8131 16.3849 41.7999 16.483 41.7999 16.5836V31.3854L30.1869 37.8805V8.9221C30.1869 8.82146 30.1736 8.7234 30.147 8.62792C30.139 8.59438 30.1178 8.56599 30.1072 8.53244C30.0832 8.47309 30.0646 8.41116 30.0328 8.35697C30.0115 8.32084 29.9796 8.28988 29.9531 8.25633C29.9185 8.21246 29.8893 8.16343 29.8494 8.12472C29.8149 8.09118 29.7724 8.06795 29.7352 8.03957C29.6927 8.00602 29.6555 7.96989 29.6077 7.94409L15.6726 0.15096C15.314 -0.0503199 14.8729 -0.0503199 14.5142 0.15096L0.579188 7.94409C0.531365 7.96989 0.494169 8.0086 0.45166 8.03957C0.414464 8.06795 0.371955 8.09118 0.337416 8.12472C0.297564 8.16343 0.268339 8.21246 0.2338 8.25633C0.207232 8.28988 0.175351 8.32084 0.154096 8.35697C0.122215 8.41116 0.100958 8.47309 0.0797036 8.53244C0.0664195 8.56341 0.0478233 8.59438 0.0398528 8.62792C0.0132845 8.7234 0 8.82146 0 8.9221V55.2835C0 55.686 0.223172 56.0602 0.581844 56.2615L28.4546 71.8477C28.5157 71.8813 28.5821 71.9019 28.6459 71.9252C28.6751 71.9355 28.7044 71.9536 28.7362 71.9613C28.8345 71.9871 28.9328 72 29.0338 72C29.1348 72 29.2331 71.9871 29.3314 71.9613C29.3579 71.9536 29.3818 71.9381 29.4084 71.9303C29.4775 71.9071 29.5466 71.8839 29.6103 71.8503L57.4831 56.2641C57.8444 56.0628 58.0649 55.6912 58.0649 55.2861V40.4843L71.4182 33.0163C71.7795 32.815 72 32.4434 72 32.0383V16.5836C71.9867 16.483 71.9708 16.3849 71.9469 16.2894ZM29.0125 53.9855L17.4208 47.6142L29.5944 40.8068L42.9503 33.3389L54.5526 39.8262L46.0401 44.546L29.0125 53.9855ZM55.7269 25.0296V37.8805L50.849 35.1529L44.1113 31.3854V18.5345L48.9892 21.2621L55.7269 25.0296ZM56.888 10.0911L68.4956 16.5836L56.888 23.0762L45.2803 16.5836L56.888 10.0911ZM21.1191 42.9461L16.2412 45.6737V17.3681L22.9789 13.6006L27.8568 10.873V39.176L21.1191 42.9461ZM15.0801 2.43213L26.6878 8.92468L15.0801 15.4172L3.47247 8.92468L15.0801 2.43213ZM2.30347 10.873L7.1814 13.6006L13.9191 17.3681V47.622V47.6245V47.6271C13.9191 47.671 13.9324 47.7123 13.9377 47.7536C13.9457 47.8078 13.9457 47.8645 13.9616 47.9187V47.9213C13.9749 47.9652 13.9988 48.0064 14.0174 48.0477C14.0387 48.0942 14.052 48.1458 14.0785 48.1897C14.0785 48.1897 14.0785 48.1922 14.0812 48.1922C14.1051 48.2309 14.1396 48.2645 14.1689 48.3006C14.2007 48.3419 14.2273 48.3832 14.2645 48.4193L14.2672 48.4219C14.299 48.4529 14.3415 48.4761 14.3787 48.5045C14.4213 48.5355 14.4584 48.5716 14.5036 48.5974C14.5063 48.5974 14.5063 48.5974 14.5089 48.6C14.5116 48.6 14.5116 48.6025 14.5142 48.6025L27.8621 55.9389V68.9163L2.30347 54.6306V10.873ZM55.7269 54.6306L30.1762 68.9189V55.9389L49.0982 45.4466L55.7269 41.7719V54.6306ZM69.662 31.3854L58.049 37.8805V25.0296L64.7867 21.2621L69.6647 18.5345V31.3854H69.662Z" fill="#FF2D20"/>
</svg>
