<svg width="31" height="35" viewBox="0 0 31 35" fill="none" xmlns="http://www.w3.org/2000/svg">
<g clip-path="url(#clip0)">
<path d="M25.9152 31.4439V22.3349H29.0415V34.4671H0.823608V22.3349H3.94991V31.4439H25.9152Z" fill="#BCBBBB"/>
<path d="M7.40098 21.4712L22.7483 24.5729L23.3979 21.589L8.0506 18.4872L7.40098 21.4712ZM9.43105 14.4039L23.6415 20.8037L24.9408 18.0553L10.7303 11.6162L9.43105 14.4039ZM13.3694 7.65066L25.428 17.3486L27.4174 15.0321L15.3588 5.33415L13.3694 7.65066ZM21.1648 0.465561L18.6475 2.27165L27.9859 14.4431L30.5031 12.637L21.1648 0.465561ZM7.07617 28.3814H22.7483V25.3582H7.07617V28.3814Z" fill="#F48023"/>
</g>
<defs>
<clipPath id="clip0">
<rect width="30.625" height="35" fill="white"/>
</clipPath>
</defs>
</svg>
