<svg width="37" height="31" viewBox="0 0 37 31" fill="none" xmlns="http://www.w3.org/2000/svg">
<g clip-path="url(#clip0)">
<path d="M11.6358 31.003C25.5987 31.003 33.2338 19.0762 33.2338 8.73585C33.2338 8.39742 33.2338 8.05898 33.2132 7.72357C34.6988 6.6153 35.9811 5.24316 37 3.67142C35.6152 4.30468 34.1461 4.72025 32.6417 4.90429C34.2257 3.92529 35.411 2.38653 35.9771 0.574136C34.4867 1.48625 32.8561 2.12906 31.1557 2.47481C30.0114 1.22027 28.4978 0.389575 26.8494 0.111263C25.2009 -0.167048 23.5094 0.122546 22.0367 0.935229C20.564 1.74791 19.3921 3.03838 18.7024 4.60691C18.0128 6.17545 17.8437 7.93461 18.2216 9.61215C15.2034 9.45626 12.2509 8.64773 9.55552 7.23903C6.86017 5.83034 4.4823 3.85298 2.57628 1.43533C1.60457 3.15776 1.30614 5.19727 1.74176 7.13859C2.17739 9.07991 3.3143 10.7771 4.92102 11.8845C3.7213 11.8427 2.54862 11.506 1.50063 10.9024C1.50063 10.9357 1.50063 10.9689 1.50063 11.0022C1.50043 12.807 2.10508 14.5566 3.21226 15.9547C4.31943 17.3527 5.86114 18.3135 7.57644 18.6743C6.45827 18.9884 5.28515 19.0339 4.14726 18.8073C4.63172 20.3633 5.57594 21.7241 6.84775 22.6994C8.11957 23.6747 9.65533 24.2156 11.2401 24.2464C8.54949 26.4188 5.22879 27.5958 1.81131 27.5885C1.206 27.5888 0.601183 27.5525 0 27.4797C3.47101 29.7783 7.5104 30.9983 11.6358 30.994" fill="#1DA1F2"/>
</g>
<defs>
<clipPath id="clip0">
<rect width="37" height="31" fill="white"/>
</clipPath>
</defs>
</svg>
